<?xml version="1.0" encoding="UTF-8"?>
<svg id="Layer_2" data-name="Layer 2" xmlns="http://www.w3.org/2000/svg" viewBox="0 0 1080 1079.93">
  <defs>
    <style>
      .cls-1 {
        fill: #00c6ac;
      }

      .cls-2 {
        fill: #0090ff;
      }

      .cls-3 {
        fill: #efefef;
      }

      .cls-4 {
        fill: #ff3000;
      }
    </style>
  </defs>
  <g id="Layer_1" data-name="Layer 1">
    <g>
      <path class="cls-4" d="M1079.93,525.34h-334.6c-105.35,0-190.74-85.4-190.74-190.74V0c290.09,0,525.34,235.1,525.34,525.34Z"/>
      <path class="cls-1" d="M525.49,0v334.6c0,105.35-85.4,190.74-190.74,190.74H0C0,235.1,235.25,0,525.49,0Z"/>
      <path class="cls-3" d="M1080,1079.85c-179.71,0-338.34-90.19-433.09-227.74-86.73-125.91,5.24-297.6,158.13-297.6h274.97s0,525.34,0,525.34Z"/>
      <path class="cls-2" d="M525.49,745.18v334.74C235.25,1079.93,0,844.68,0,554.44h334.74c105.35,0,190.74,85.4,190.74,190.74Z"/>
    </g>
  </g>
</svg>